<?xml version="1.0" encoding="utf-8"?>
<!-- Generator: Adobe Illustrator 15.0.0, SVG Export Plug-In . SVG Version: 6.00 Build 0)  -->
<!DOCTYPE svg PUBLIC "-//W3C//DTD SVG 1.1//EN" "http://www.w3.org/Graphics/SVG/1.1/DTD/svg11.dtd">
<svg version="1.1" id="Layer_1" xmlns="http://www.w3.org/2000/svg" xmlns:xlink="http://www.w3.org/1999/xlink" x="0px" y="0px"
	 width="400px" height="400px" viewBox="0 0 400 400" enable-background="new 0 0 400 400" xml:space="preserve">
<g id="Layer_2">
</g>
<g id="Layer_1_1_" display="none">
	<path display="inline" fill="#F6F6F6" d="M336.699,264C275.4,229.9,234,203.8,200,142.3v-0.1l0,0l0,0v0.1
		c-34,61.5-75.4,87.5-136.7,121.7c-0.8,15.1-2.6,25.5,2.2,39.1C128,278.9,157.8,250.6,200,206c42.1,44.6,72,72.9,134.5,97.1
		C339.199,289.5,337.4,279.1,336.699,264z"/>
	<path display="inline" fill="#F6F6F6" d="M336.699,210C275.4,175.8,234,121.8,200,60.3v-0.1l0,0l0,0v0.1
		C166,121.8,124.6,175.8,63.3,210c-0.8,15.1-2.6,25.5,2.2,39.1C128,224.9,157.8,178.6,200,134c42.1,44.6,72,90.9,134.5,115.1
		C339.199,235.5,337.4,225.1,336.699,210z"/>
	<path display="inline" fill="#F6F6F6" d="M336.699,317C275.4,282.9,234,277.8,200,216.4V216.3l0,0l0,0v0.101
		c-34,61.5-75.4,66.5-136.7,100.699c-0.8,15.101-2.6,25.5,2.2,39.101C128,331.9,157.8,314.6,200,270c42.1,44.6,72,61.9,134.5,86.1
		C339.199,342.6,337.4,332.1,336.699,317z"/>
</g>
<g id="Layer_3">
	<path fill="#1A3710" d="M179.5,305c0,6.6-5.4,12-12,12H112c-6.601,0-12-5.4-12-12V96c0-6.6,5.399-12,12-12h55.5c6.6,0,12,5.4,12,12
		V305z"/>
	<path fill="#1A3710" d="M300.5,305c0,6.6-5.4,12-12,12H233c-6.601,0-12-5.4-12-12V96c0-6.6,5.399-12,12-12h55.5c6.6,0,12,5.4,12,12
		V305z"/>
</g>
</svg>
