<?xml version="1.0" encoding="utf-8"?>
<!-- Generator: Adobe Illustrator 15.0.0, SVG Export Plug-In . SVG Version: 6.00 Build 0)  -->
<!DOCTYPE svg PUBLIC "-//W3C//DTD SVG 1.1//EN" "http://www.w3.org/Graphics/SVG/1.1/DTD/svg11.dtd">
<svg version="1.1" id="Layer_1" xmlns="http://www.w3.org/2000/svg" xmlns:xlink="http://www.w3.org/1999/xlink" x="0px" y="0px"
	 width="400px" height="400px" viewBox="0 0 400 400" enable-background="new 0 0 400 400" xml:space="preserve">
<g id="Layer_2">
</g>
<g id="Layer_1_1_" display="none">
	<path display="inline" fill="#F6F6F6" d="M336.699,264C275.4,229.9,234,203.8,200,142.3v-0.1l0,0l0,0v0.1
		c-34,61.5-75.4,87.5-136.7,121.7c-0.8,15.1-2.6,25.5,2.2,39.1C128,278.9,157.8,250.6,200,206c42.1,44.6,72,72.9,134.5,97.1
		C339.199,289.5,337.4,279.1,336.699,264z"/>
	<path display="inline" fill="#F6F6F6" d="M336.699,210C275.4,175.8,234,121.8,200,60.3v-0.1l0,0l0,0v0.1
		C166,121.8,124.6,175.8,63.3,210c-0.8,15.1-2.6,25.5,2.2,39.1C128,224.9,157.8,178.6,200,134c42.1,44.6,72,90.9,134.5,115.1
		C339.199,235.5,337.4,225.1,336.699,210z"/>
	<path display="inline" fill="#F6F6F6" d="M336.699,317C275.4,282.9,234,277.8,200,216.4V216.3l0,0l0,0v0.101
		c-34,61.5-75.4,66.5-136.7,100.699c-0.8,15.101-2.6,25.5,2.2,39.101C128,331.9,157.8,314.6,200,270c42.1,44.6,72,61.9,134.5,86.1
		C339.199,342.6,337.4,332.1,336.699,317z"/>
</g>
<g id="Layer_3" display="none">
	<path display="inline" fill="#F6F6F6" d="M179.5,305c0,6.6-5.4,12-12,12H112c-6.601,0-12-5.4-12-12V96c0-6.6,5.399-12,12-12h55.5
		c6.6,0,12,5.4,12,12V305z"/>
	<path display="inline" fill="#F6F6F6" d="M300.5,305c0,6.6-5.4,12-12,12H233c-6.601,0-12-5.4-12-12V96c0-6.6,5.399-12,12-12h55.5
		c6.6,0,12,5.4,12,12V305z"/>
</g>
<g id="Layer_4" display="none">
	<g id="bURbgi.tif" display="inline">
		<g id="XMLID_1_">
			<g>
				<path fill="#707070" d="M235,250c3.1,2.2-3.9,2.6-6,3C227.6,248.6,235,253,235,250z"/>
				<path fill="#707070" d="M182,223c3-1,1.8,2.2,2,4c-3.8-1.5-1.9,2.8-5,2C179.3,226.3,181.5,225.5,182,223z"/>
				<path fill="#707070" d="M248,174c0.3,1.4,1.399,1.9,1,4c7.8-0.4,12.399,7.5,18,6c-8.8-3.6-15.101-9.6-23-14
					c-1.2,5.8-8.3,11-8,15c0.7-3,2.1,1,4,0c1.3-2.5-2.9-4.1,0-5c2,0.7,8.1,2.5,9,1c-2-1.7-5-2.3-6-5
					C246.1,176.8,244.9,173.2,248,174z M262,165c-3.101-1.6-4.9-4.4-8-6C253,164,260.3,165.9,262,165z M259,154c0,1.3-1.8,0.9-2,2
					c3.399-1.3,5.3,3.9,7,1C261.6,156.7,262.1,153.5,259,154z M264,175c0.5-3.1-2.101-3.2-5-3c-3.101-2.9-4.8-7.2-10-8
					c0.399,2.4-1.8,2.2-1,5C253.7,169.3,257.8,172.8,264,175z M152,157c1.1-4.5-4-2.6-6-4C146.6,155.7,148.8,156.9,152,157z
					 M153,160c3.2,0.2,4.3-1.7,5-4c-2.8-0.8-2.601,1.4-5,1C153,158,153,159,153,160z M153,259c3,1.4,4,4.6,7,6c-3-3.2,0.5-10.6-7-11
					c-3.601,3.4-5.9,8.1-12,9c2.7,0.9-2,3.7,2,4c3.7-3.2,3.5-4.3,9-2C152.6,263.2,150.8,259.1,153,259z M100,228
					c2.6-1.7,6.8-1.8,7-6C103.4,222.8,100.6,224.3,100,228z M113,228c-0.3-1.8,2.8-5,0-6C112.2,222.7,110.8,227.6,113,228z M116,144
					c3.8,16.6-5,35.2,10,40c2.7,0.9,6.2-0.3,9,0c12.7,1.4,25.1,7.8,37,11c-0.9-6.4-7.2-7.5-12-10c-5.5-7.4-9.601-17.2-16-22
					c-2-1.5-5.2-1.6-7-3c-2.9-2.2-4.9-6.6-8-9c-3.3-2.6-7-5.2-11-6C117.8,144.2,117.2,143.8,116,144z M156,219
					c-7.5,3.7-14.5,1.4-25,1c-2.7,4.3-14.601-0.7-14,7c1,1.3,1,3.7,3,4c0.3-2.3,1-4.3,3-5c2.5,0.5,4,2,5,4c-0.5-3.1,2.5-2.8,4-4
					c-0.2,3.8,0.8,0.4,3,1c0,1.8-5.601,2.9-2,5c4.1-10.8,22.7-3.5,26-11C157.6,220.8,157.3,219.3,156,219z M213,243.1
					c0.1,0.2,0.3,0.4,0.7,0.601C213.5,243.6,213.2,243.3,213,243.1z M221,135c-3.4,0.2-3,3.3-5,0c0.2,1.9-1.101,2.2-1,4
					C217.7,138.4,219.7,137,221,135z M257,220c-12.4,0.2-26.2-5.7-35-2c0.7,2.7,1.6,5.1,3,7c4.7-12.4,17.1,4.2,24-2
					c2.399,0.3,1.899,3.5,5,3c0-4.5,4.6-0.3,6,0c1.1-0.9,0.3-3.7,3-3c4.899,5,11.6,4.9,20,2c-2.8-1.5-6.601-2.8-10-1
					C269.5,218.5,262.2,219.9,257,220z M209,133c-2.7-2.6-5.3,0.6-9,0c-0.5,2.3-2,5.1,0,7C204.1,138.8,206.8,136.2,209,133z
					 M208,108c-4.5-3.3-7.9,1.7-8,6C204.4,113.8,206.6,111.3,208,108z M212,258c4.1-0.8,5.1,1.5,5,5c2.5-1.3,4.2,2.9,5,0
					c-5.2-1.1-4.3-8.4-10-9C212,255.3,212,256.7,212,258z M203,163c2.8-7.5,11.2-3.1,14-10c-5.2-0.5-11.7,7.2-15,2
					c2.1-2.2,7.1-1.5,7-6c-1.7-1.7-5.9-0.8-9-1c-2,5.2,0.399,8.8,1,14c-0.2,2.9-3.9,5-2,7c5.1,1.8,12.5-1.9,15-6
					C210,162.5,204.5,167.1,203,163z M212,115c-4.3-2-7.8,4.6-12,6C205.5,120.5,208.5,117.5,212,115z M207,173c-1.4,0-2.2-0.5-3-1
					c1,1.9-3,3.3,0,4C204.1,174.1,207.3,175.3,207,173z M258,248c-12.5-12.8-34.2-16.5-49-27c1.3,7.3,7.6,9.7,9,17
					c3,0.9,7.8-1.4,8,0c-0.4,2.2-4.9,0.4-7,1c6.8,14.2,14.3,27.7,27,36C250.1,266.1,254.2,257.2,258,248z M221,133
					c-0.601-2.4-2.3-3.6-4-5c1.3,2.5-4,3.1-1,4c0.2-1.2,1.6-1.1,3-1C219.1,132.2,219.3,133.4,221,133z M206,192
					c9.899-4.7,17.5-17.1,25-21c0.5,6.1-6.2,5.2-6,11c9.7-4.2,13.6-12.5,21-21c2.8-3.2,5.7-4.9,8-8c2.5-3.3,3.6-7.9,6-11
					c1.6-2,4.1-2.1,5-4c0.899-1.8,0.2-5,1-7c-12,2.9-23.5,0.3-37,2c-5.2,3.8-4.3,13.7-8,19C220.2,169.5,211,178.6,206,192z M182,198
					c2.1,0.6,3.8,5.1,5,1C185.5,199,182.9,195.3,182,198z M195,305c0.5-11.9,1.8-17.3,3-29c-6.2-5,3.6-23.8-3-30
					c-0.2,1.2-1.601,1.1-3,1c0.8,11.5,0.7,28-7,34c0.3,6.5,0.899,12.7-2,19c-0.2-1.2,0.2-2.8-1-3c0.3,4.7,4.1,5.9,4,11
					C191,309,192,306,195,305z M198,119c1.6-0.1,3.5,0.1,3-2C199.3,117,198.4,117.8,198,119z M200,141c0.7,3.1-1.7,2.9-1,6
					c5.2,0.2,7.3-2.7,9-6C205.3,141,202.7,141,200,141z M216,122c-4.3,0.5-17.5,0.3-18,8C203.3,130.4,211,125.1,216,122z M158,152
					c-0.2,2.2,0.8,3.2,3,3c0-1,0-2,0-3C160,152,159,152,158,152z M162,163c0.6-0.9,4.1-3.7,2-4c-1.3,1.7-4.5,1.5-6,3
					c0.6,5,6.399,4.9,10,7C168.6,164.4,162.8,166.2,162,163z M160,173.3c0.3,5.3,5.6,5.5,8,8.7C167.6,178.6,161.3,174.4,160,173.3
					c0-0.1,0-0.2,0-0.3C159.7,172.9,159.8,173,160,173.3z M160,209c4.7-0.8,8.6-3.5,13-4c2.3-0.3,5.899,4,7-1
					c-15.9-7.4-32-14.7-52-18c-9,4.4-13.8,12.8-20,20c-7.4,0.9-10.101,6.5-14,11c9.7,1.3,18.7-1.8,26-3
					C133.2,211.8,147.7,211.1,160,209z M175,187c-1.9-1.4-2.9-3.8-6-4C168.1,186.6,173.9,188.7,175,187z M175,264
					c-1.7-5.1-4.9-7.7-3-14c-4.601-0.6-6.2,1.8-11,1c0.7,5,1.8,14.8,6,13c-3.101-1.7-5.5-11.7,2-11C170,257.6,170.4,262.9,175,264z
					 M191,135c4.3-6,4.6-24,0-30c-13,7.6-21.101,20.2-30,32c1.5,3.5,4.399,5.6,4,11c10.399,6.2,11.7,21.6,20,30c-0.3,4,2.3,5,2,9
					c1.5,1.5,4.2,1.8,5,4c1.8,8.3,1.399,10.6-1,18c-0.4,4.5,4,8.1,2,11c-3.4-1.7-7.5-1.5-12,0c-3.7,1.2-12.8,7-21,11
					c-16.601,8.2-34.7,15.9-35,33c11.5-2.8,21.1-10.7,31-16c10.3-5.5,20.6-10.5,29-18c3.7-3.3,5.5-8.6,11-10c2.5,0.8,3.899,2.7,7,3
					c1.399,8,7,16.9,10,20.1c-0.8-1,2.1,0.101,2-1.1c-1.3-2.3-3-4.3-5-6c-1.5-10.4-8.101-11.1-8-24c8.5-3.8,25.5,0.9,30-7
					c22.2,5.1,41.899,12.8,66,16c-6.4-14.2-13.3-28-26-36c-6,4.4-11.5,8.5-20,11c-7,2.1-16,1.1-21,4c-3.4,2-2.8,6.7-7,7
					c-7,0-14.601-0.6-19,2c-3.101-3.2-8.101-4.6-11-8c1.6-5.8,2.899-26.2-2-32c5-5.7-0.4-21.7,3-29C193.3,138.7,191.1,137.9,191,135
					z M156,131c11.7-17.3,26.1-31.9,45-42c13.7,9.3,22.5,23.5,33,36c10.6-4,28.1-5.4,41-2c0.899,4,3.899,6.1,5,10
					c3.7,13.4-3.4,34.1,1,50c1.3,4.7,7,8.4,10,12c3.8,4.5,6.3,8.5,10,12c0.7,4.3-1.7,5.6-3,8c20.1,18.4-18.4,30.8-35,36
					c-1.3,6.8-3,13.7-6,20c-2.5,5.1-6.601,12.8-12,14c-6.3,1.4-14-3-21-5c-7.101-2-14.2-2.8-21-5c-2.2,7.9,1.3,18.7,0,29
					c-5,6.1-19.2,11.7-28,5c-0.8-12.4,2.2-21.1,6-29c-20.3-2.4-49.3,3.3-61-10c-1.4-8,3.1-10.2,3-17c-7.8-8.1-31.9-16.3-33-31
					c-1-13.5,18.3-24.5,24-34c-5.9-15.6-7.3-35.5-1-52C125.1,132.1,139.9,130.9,156,131z M144,153c1.1-0.4,3.8-4,1-5
					c-1.101,2.3-6.3,0.4-5-3c-1,0-2,0-3,0c0,0.7,0,1.3,0,2C141.3,149,140,150.6,144,153z M134,146c1.6-2.8-4.3-2.8-4-1
					C131.4,145.3,131.9,146.4,134,146z M177,179c0-1.7-0.8-2.6-2-3c0,1-0.8,1.2-1,2C175.3,178,175.4,179.3,177,179z M165,221
					c-1.8,0.2-5-1-4,2C163.3,223.3,164.8,222.8,165,221z M211,148c3.7,0.4,5.899-0.8,6-4C214.3,144.6,212.3,146,211,148z M206,251
					c3.5-2,4.399,3.4,5,1c-1.2-2.1-1.2-5.5-4-6C207.3,248.3,206.8,249.8,206,251z M204,243C203.2,249,208.6,243.7,204,243L204,243z
					 M181,260c0-0.7,0-1.3,0-2c-0.7,0-1.3,0-2,0c0,0.7,0,1.3,0,2C179.7,260,180.3,260,181,260z M224,135c0-0.7,0-1.3,0-2
					c-0.7,0-1.3,0-2,0c0,0.7,0,1.3,0,2C222.7,135,223.3,135,224,135z"/>
			</g>
		</g>
	</g>
	<path display="inline" fill="#F65E3B" d="M360.4,330.6"/>
</g>
<g id="Layer_7" display="none">
	<polygon display="inline" fill="#776E65" points="200,89 234,125 277.5,122 277.5,179 303.7,225 263,251 247.8,283.8 203.4,270.1 
		203,304 172,308.2 181.5,277.1 120,270 125,250 87.3,221.9 114.2,184.5 113,136 156,131 	"/>
</g>
<g id="Layer_6" display="none">
	<polygon display="inline" fill="#F9F6F2" points="125,139 179,187.6 152.2,139 	"/>
	<polygon display="inline" fill="#F9F6F2" points="201.1,105 221,130 199,187.6 	"/>
	<polygon display="inline" fill="#F9F6F2" points="267,136 209,197 266,179 	"/>
	<polygon display="inline" fill="#F9F6F2" points="216,216.8 285.8,225 258,239.4 	"/>
	<polygon display="inline" fill="#F9F6F2" points="203.4,232 228.8,270.1 204.9,264 	"/>
	<polygon display="inline" fill="#F9F6F2" points="187,235 181,267 137,264.2 	"/>
	<polygon display="inline" fill="#F9F6F2" points="182,213.5 126.8,239.4 105.7,225 	"/>
</g>
<g id="Layer_5" display="none">
	<polygon display="inline" fill="#F65E3B" points="195.5,105 161,137 192.8,195 	"/>
	<polygon display="inline" fill="#F65E3B" points="227.9,134 267,131 206,192 	"/>
	<polygon display="inline" fill="#F65E3B" points="272,185 292.1,221 205,209 	"/>
	<polygon display="inline" fill="#F65E3B" points="255.9,249.3 242.1,272.2 207,219 	"/>
	<polygon display="inline" fill="#F65E3B" points="130,248 125,264 193,220 	"/>
	<polygon display="inline" fill="#F65E3B" points="100,219 180,204 121.4,187.6 	"/>
	<polygon display="inline" fill="#F65E3B" points="119.5,141 178.2,195 119.5,179 	"/>
	<path display="inline" fill="#F65E3B" d="M452.1,254"/>
</g>
<g id="Layer_8" display="none">
	<g id="XMLID_2_" display="inline">
		<g>
			<path fill="#776E65" d="M274.5,153.1c-1.5,0.4-4.7,0.4-6.2,0C270.3,153.1,272.4,153.1,274.5,153.1z"/>
			<path fill="#776E65" d="M274.5,153.1c0.2,5.8-1.3,11.9-3.101,16.6c-6.6-2.7-16.399-2.2-16.6-11.3c-2.2,1.1-2.3,4.3-2.9,7
				c6.301-3.4,10.2,8.2,19.4,6c-2.6,4.5-3.9,10.4-6.5,14.9c-8.8,0-11.6-6-18.2-8.2c1.101-3,2.8-5.3,4.101-8.2
				c-1.9,1.8-4.2,5.2-6.2,7.7c-1.5,1.3-2.8,2.6-4.101,4.1c-6.899,5.6-14.6,10.5-25,12.7c0.101,7.6,1.9,13.6,4.801,18.5
				c-2.2,2.1-6.801,1.399-7.9,4.1c-2,4.8,2.9,9.3,5,12.2c1.5,1.7,3.1,3.3,4.8,4.8c2,2.7,4.3,5.2,4.601,9.6
				c-6.101,2.2-8.5,7.9-9.601,15.101c-11.7-2.7-9.6,10.2-18,11.5c-1,0-2.1,0-3.1,0c-8.2-1.2-5.5-14.5-17-11.5
				c-1.9-6.9-4.7-12.9-9.8-16.601c0.5-3.199,2.1-5.3,3.6-7.399c0.3-0.101,0.6-0.4,0.7-0.7c0.899-0.7,1.7-1.5,2.399-2.4
				c0.7-0.5,1.2-1,1.7-1.699c1-0.801,1.9-1.7,2.601-2.601c4.399-2.8,5.6-12.7-1.9-13c-0.2-0.7-2,0.2-2.2-0.5
				c2.5-4.899,2-12.7,4.601-17.5c-9.301-4.6-19.301-8.5-26.4-15.4c-0.7-0.9-1.5-1.7-2.4-2.4c-4.199-4.8-7.699-10.4-8.899-18.2
				c0-0.1,0-0.2,0-0.2c-0.9-0.4-1.7,1.3-2.4,1.9c-4.3,4-9.399,7.1-17,7.7c-0.2,0-0.3,0-0.5,0c-0.1-1,0.3-2.6-0.2-3.1
				c0-3.4-1.6-5.3-1.699-8.6c0-1,0-2.1,0-3.1c-0.2-0.7,0.199-0.9,0.199-1.4c0.4,0,0.801,0,1.2,0c0.7,0.4,3.101,0.4,3.8,0
				c2.4,0.1,4.2-0.5,6.5-0.5c0.801,0,1.601,0,2.4,0c2.8,0.1,4.5,1.2,4.3,4.3c2.4-6,12.601-4,19.9-3.8c1,0.4,3.6,0.4,4.6,0
				c0.601,0,1.101,0,1.7,0c0.2,6.6,3.8,11.6,8.2,14.2c1.3,0.8,3.899,2.2,5.3,2.2c2.2-0.1,4.8-3.1,6-5.8c4.3-9.7,0.7-28.8,10.8-32.2
				c0.5,0.4,2.601,0.4,3.101,0c0.6,0,1.3,0,1.899,0c1.4,0,2.9,0,4.3,0c2.101,0.3,4.5,0.4,5,2.2c-1,2.6-6.899,0.3-8.199,2.6
				c0.5,2.6,2.5,3.8,4.3,5c3.2-1.7,5.6-4.3,10.1-4.8c1.3,0,2.601,0,3.8,0c1.9,0.3,3.5,0.8,4.801,1.7c1.5,7.2-3,10.4-5.301,14.6
				c-2.899-0.6-1.699-5.4-4.1-6.5c-3.7,1.5-6.5,4.1-7.4,8.4c-0.399,0.3-0.399,2.1,0,2.4c1,5.4,4.9,8.1,10.301,9.1
				c0.399,0.4,2.5,0.4,2.899,0c6.3-0.9,8.4-6,8.4-13.2c4.8,0.7,9.8-0.2,14.399-0.5c1.601,0,3.2,0,4.801,0
				c2.699,0.3,4.699,1.2,5.5,3.4c1.3-1.9,3.3-3.1,6.5-3.1c1.5,0,3,0,4.6,0c0.8,0,1.6,0,2.4,0C269.8,153.5,273,153.5,274.5,153.1z"/>
			<path fill="#776E65" d="M268,184.6c6.5,1,12.2,2.8,19.399,3.1c0.7,0.4,3.101,0.4,3.801,0c3.3,0.1,5.6-0.8,8.199-1.4
				c-2.699,10.6-11.199,15.5-23.5,16.601c-1,0-2.1,0-3.1,0c-5.2-0.301-9.4-1.4-13-3.4C261.2,193.2,266.6,190.9,268,184.6z"/>
			<path fill="#776E65" d="M271.3,182.9c-1.6-6.7,4-8.1,3.4-14.6c1.3,0,2.6,0,3.8,0c6.899,0.6,12,2.8,19.2,3.1
				c0.3,0.4,2.1,0.4,2.399,0c3,0,5.2-0.7,7.2-1.7c-1,4.9-4,9.9-6,14.6c-0.4,0.6-2.1-0.1-2.4,0.5c-2.699,0-5.399,0-8.199,0
				c-0.301-0.5-1.7-0.1-2.4-0.2C282.5,184.2,277,183.5,271.3,182.9z"/>
			<path fill="#776E65" d="M365.699,154.3c0.4,0.4,0.4,2.5,0,2.9C365.699,156.2,365.699,155.3,365.699,154.3z"/>
			<path fill="#776E65" d="M365.4,153.4c0,0.4,0.3,0.5,0.2,1c0,1,0,1.9,0,2.9c-4.5,10.4-19.4,10.3-33.1,11.5
				c-3.801,0-7.5,0-11.301,0c-3.6,0-6.699-0.5-10.3-0.5c1.7-4.4,3.9-8.2,3.4-14.9C331.3,153.4,348.4,153.4,365.4,153.4z"/>
			<path fill="#776E65" d="M365.4,153.4c-17,0-34.1,0-51.1,0C330.8,153,349,153,365.4,153.4z"/>
			<path fill="#776E65" d="M348.4,169.7c4.4,5.9-4.6,9.7-8.899,11c-5.9,1.9-12.601,2.8-18.2,2.9c-3,0-5.9,0-8.9,0
				c-2.7-0.1-5.5-0.3-7.899-0.7c0.2-10.7,8.899-13.1,19.399-13.4c2.3,0,4.601,0,7,0c1.4,0,2.7,0,4.101,0c0.6,0.6,2.3,0.1,3.399,0.2
				c0.601,0,1.3,0,1.9,0c0.5,0.5,2,0.1,2.899,0.2C344.8,169.8,347.1,170.2,348.4,169.7z"/>
			<path fill="#776E65" d="M343.1,169.7c1.8,0,3.5,0,5.3,0c-1.3,0.6-3.6,0.1-5.3,0.2C343.1,169.8,343.1,169.8,343.1,169.7z"/>
			<path fill="#776E65" d="M343.1,169.7c0,0.1,0,0.2,0,0.2c-0.9-0.1-2.4,0.3-2.9-0.2C341.199,169.7,342.199,169.7,343.1,169.7z"/>
			<path fill="#776E65" d="M338.3,169.7c-1-0.2-2.7,0.3-3.4-0.2C336,169.6,337.699,169.1,338.3,169.7z"/>
			<path fill="#776E65" d="M321.3,168.7c3.8,0,7.5,0,11.3,0C329.3,169.1,324.5,169.1,321.3,168.7z"/>
			<path fill="#776E65" d="M332.3,186.2c3.899,7.9-8.8,10.5-15.4,11.5c-7.8,1.2-16.3,0.9-22.3,0c1.5-4,5.9-5.1,6.2-10.3
				c0.4-2.4,4.9-0.7,7.2-1.2c2.699,0,5.399,0,8.199,0C321.6,186.2,327,186.2,332.3,186.2z"/>
			<path fill="#776E65" d="M332.3,186.2c-5.4,0-10.7,0-16.101,0c-2.7,0-5.399,0-8.2,0c-2.299,0.5-6.799-1.2-7.199,1.2
				c-0.601-2.1,1.7-1.3,3.1-1.4c1.4,0,2.7,0,4.1,0c2.7,0,5.4,0,8.2,0C321.5,186.2,327.4,185.7,332.3,186.2z"/>
			<path fill="#776E65" d="M330.9,169.4c-2.3,0-4.6,0-7,0C325.699,169,329.1,169,330.9,169.4z"/>
			<path fill="#776E65" d="M312.4,183.6c3,0,5.9,0,8.9,0C318.9,184,314.8,184,312.4,183.6z"/>
			<path fill="#776E65" d="M312.6,153.4c0.4,6.4-3.8,8.2-3.4,14.6c-1.1,0.2-2.899-0.3-3.6,0.2c-11.1,0.2-21.3-0.5-29.3-3.4
				c0.1-3,1.5-4.5,1.7-7.4c0.399-0.5,0.399-2.6,0-3.1c0-0.3,0-0.6,0-1C289.6,153.4,301.1,153.4,312.6,153.4z"/>
			<path fill="#776E65" d="M312.6,153.4c-11.5,0-23,0-34.6,0C289,153,301.7,153,312.6,153.4z"/>
			<path fill="#776E65" d="M305.7,168.2c0.699-0.6,2.499-0.1,3.6-0.2C308.5,168.5,306.8,168.1,305.7,168.2z"/>
			<path fill="#776E65" d="M299,184.8c0.3-0.6,2,0.1,2.399-0.5C301.2,185.2,299.8,184.7,299,184.8z"/>
			<path fill="#776E65" d="M297.8,171.4c0.8,0,1.6,0,2.4,0C299.9,171.8,298,171.8,297.8,171.4z"/>
			<path fill="#776E65" d="M287.4,187.7c1.301,0,2.601,0,3.801,0C290.5,188.1,288.2,188.1,287.4,187.7z"/>
			<path fill="#776E65" d="M290.8,184.8c-0.7-0.1-2.1,0.3-2.4-0.2C289.1,184.7,290.5,184.2,290.8,184.8z"/>
			<path fill="#776E65" d="M278.5,168.2c-1.3,0-2.601,0-3.8,0C275.4,167.8,277.8,167.8,278.5,168.2z"/>
			<path fill="#776E65" d="M278.1,154.3c0.4,0.5,0.4,2.6,0,3.1C278.1,156.4,278.1,155.4,278.1,154.3z"/>
			<path fill="#776E65" d="M272.8,202.8c1,0,2.1,0,3.1,0C275.4,203.2,273.3,203.2,272.8,202.8z"/>
			<path fill="#776E65" d="M265.8,153.1c-1.5,0-3,0-4.6,0C262.2,152.7,264.9,152.7,265.8,153.1z"/>
			<path fill="#776E65" d="M261.5,189.6c-1,4.4-4.8,6-6.5,9.8c-4.9-2.5-13-6-13.9-12.2c-0.5-3.2,1.3-5.3,4.101-5.5
				C251.5,181.3,257.9,186.7,261.5,189.6z"/>
			<path fill="#776E65" d="M251.4,201.1c-0.899,2.4-2.5,4.2-5,5c-0.8,0-1.6,0-2.399,0c-7.101-2.6-10.4-9-12.2-16.8
				c1-0.1,1.6-0.6,2.6-0.7c0.9,0,1.801,0,2.601,0C243.9,190.7,245.3,198.3,251.4,201.1z"/>
			<path fill="#776E65" d="M249.3,152.9c-1.6,0-3.2,0-4.8,0C245.5,152.5,248.2,152.5,249.3,152.9z"/>
			<path fill="#776E65" d="M244,206.2c0.8,0,1.6,0,2.399,0C246.1,206.6,244.2,206.6,244,206.2z"/>
			<path fill="#776E65" d="M244.5,177.6c-1.3,1.5-2.601,2.8-4.101,4.1C241.7,180.2,243,178.9,244.5,177.6z"/>
			<path fill="#776E65" d="M241.6,207.8c-0.899,3.9-6.2,3.4-9.6,4.8c-2.601-5.3-6.101-9.699-6.7-17c0-0.9,0-1.8,0-2.6
				c0.4-0.1,1.2,0.3,1.2-0.2c1.2,0.1,1.6-0.6,1.899-1.4C233.3,196.3,235.2,204.3,241.6,207.8z"/>
			<path fill="#776E65" d="M237,188.6c-0.9,0-1.8,0-2.601,0C234.7,188.2,236.7,188.2,237,188.6z"/>
			<path fill="#776E65" d="M229.8,213.8c0.5,0.9-2.6,0.3-3.6,0.5c-1.4-0.2-3.4,0.3-4.301-0.2C224.5,213.9,227.7,214.4,229.8,213.8z"
				/>
			<path fill="#776E65" d="M226.2,204c1.399,3.7,2.5,7.2,3.6,9.8c-2.2,0.601-5.4,0.101-7.9,0.2c-0.1,0-0.199,0-0.199,0
				c-0.7-5.2-3-8.7-3.601-13.9c0-1,0-1.9,0-2.9c0-0.7,0.5-0.9,0.7-1.4C223.5,195.1,225,200.5,226.2,204z"/>
			<path fill="#776E65" d="M226.5,192.7c0,0.5-0.8,0.1-1.2,0.2c0,0.9,0,1.8,0,2.6c-0.5-0.5-0.1-2-0.2-2.9
				C225.5,192.7,226,192.7,226.5,192.7z"/>
			<path fill="#776E65" d="M218.8,166.6c1,0,1.9,0,2.9,0C221.2,167,219.2,167,218.8,166.6z"/>
			<path fill="#776E65" d="M220.5,136.8c-1.3,0-2.601,0-3.8,0C217.4,136.4,219.7,136.4,220.5,136.8z"/>
			<path fill="#776E65" d="M217.3,229.2c1.7,1.5,3.3,3.1,4.8,4.8C220.5,232.5,218.8,230.9,217.3,229.2z"/>
			<path fill="#776E65" d="M218.1,197.3c0,1,0,1.9,0,2.9C217.7,199.8,217.7,197.7,218.1,197.3z"/>
			<path fill="#776E65" d="M208.5,155c0,0.8,0,1.6,0,2.4C208.1,157.2,208.1,155.3,208.5,155z"/>
			<path fill="#776E65" d="M205.3,131.8c-1.4,0-2.9,0-4.3,0C201.9,131.4,204.5,131.4,205.3,131.8z"/>
			<path fill="#776E65" d="M196,131.8c1,0,2.1,0,3.1,0C198.6,132.2,196.5,132.2,196,131.8z"/>
			<path fill="#776E65" d="M196,270.2c1,0,2.1,0,3.1,0C198.6,270.6,196.5,270.6,196,270.2z"/>
			<path fill="#776E65" d="M178.2,214.3c-0.601-0.1-3,0.3-2.2-0.5C176.2,214.5,178,213.6,178.2,214.3z"/>
			<path fill="#776E65" d="M180.1,227.3c-0.8,1-1.7,1.9-2.6,2.601C178.3,228.9,179.2,228.1,180.1,227.3z"/>
			<path fill="#776E65" d="M177.5,197.3c0.399,0.6,0.399,2.8,0,3.4C177.5,199.5,177.5,198.4,177.5,197.3z"/>
			<path fill="#776E65" d="M177.5,197.3c0,1.1,0,2.2,0,3.4c-0.4,4.899-3.3,7.3-3.4,12.5c-0.1,0-0.2,0-0.2,0c0,0.2,0,0.5,0,0.7
				c-2,0.199-6.3,0.699-7.899-0.2c1.5-6.5,5.6-10.4,6.5-17.5c1.7,0,3.399,0,5,0C177.5,196.5,177.5,196.9,177.5,197.3z"/>
			<path fill="#776E65" d="M175.6,231.6c0.101,0,0.2,0,0.2,0c-0.7,0.9-1.5,1.7-2.4,2.4C174,233.1,175,232.5,175.6,231.6z"/>
			<path fill="#776E65" d="M174.1,213.1c0,0.4,0,0.801,0,1.2c-1.3,0-2.899,0-4.6,0c-1.601,0-4.101,0.5-3.601-0.7
				c1.601,0.9,5.9,0.5,7.9,0.2c0-0.2,0-0.5,0-0.7C174,213.1,174.1,213.1,174.1,213.1z"/>
			<path fill="#776E65" d="M175.6,231.6c-0.6,0.9-1.6,1.5-2.2,2.4c-0.1,0.3-0.399,0.6-0.699,0.7
				C173.5,233.5,174.5,232.5,175.6,231.6z"/>
			<path fill="#776E65" d="M170.8,194.4c-1,7.4-5,11.8-7,18.2c-0.8,0-1.6,0-2.4,0c-3-0.399-4.399-2.399-7-3.399
				c3.2-5.5,8.9-8.5,9.601-16.6C167.4,192.2,168.5,193.9,170.8,194.4z"/>
			<path fill="#776E65" d="M159.5,153.4c1.5,0,3,0,4.6,0C163.1,153.8,160.5,153.8,159.5,153.4z"/>
			<path fill="#776E65" d="M160.5,187.9c0.899,0.8,1.7,1.6,3.6,1.4c-1.2,5.1-3.7,9-6.2,12.7c-1,0.8-1.899,1.8-2.899,2.6
				c-1.7,1.2-3.4,2.4-5.8,2.9c-0.801-2.4-2.5-3.9-4.801-4.8C149.2,197.3,153.1,190.9,160.5,187.9z"/>
			<path fill="#776E65" d="M161.4,212.6c0.801,0,1.601,0,2.4,0C163.6,213,161.7,213,161.4,212.6z"/>
			<path fill="#776E65" d="M155,204.7c1-0.8,1.8-1.8,2.899-2.601C157,203.1,156.2,204.1,155,204.7z"/>
			<path fill="#776E65" d="M151.8,178.6c0.9,0.7,1.7,1.5,2.4,2.4C153.3,180.3,152.5,179.5,151.8,178.6z"/>
			<path fill="#776E65" d="M132.9,191.3c5.801-2.6,17.301-17.4,23-6.5c-3.3,7.1-8.3,12.5-16.6,14.6
				C139.4,194.5,135.8,193.3,132.9,191.3z"/>
			<path fill="#776E65" d="M149.2,176.2c0,1.3-2.101,2.5-3.101,3.6C146.9,178.4,148.5,177.7,149.2,176.2z"/>
			<path fill="#776E65" d="M149.2,176.2c-0.7,1.6-2.301,2.2-3.101,3.6c-4,3.1-8.399,5.9-14.899,6.5c-1.9-5.3-5.7-8.5-6.5-14.9
				c8.699,0.6,10.5-5.8,18-6.5C144.1,169.4,145.2,174.2,149.2,176.2z"/>
			<path fill="#776E65" d="M143,160.1c0,0.1,0,0.2,0,0.2c-1-0.4-1.5,1.4-2.4,1.7C141.2,161.4,142.1,159.7,143,160.1z"/>
			<path fill="#776E65" d="M135.3,152.9c-0.8,0-1.6,0-2.4,0C133.1,152.5,135,152.5,135.3,152.9z"/>
			<path fill="#776E65" d="M128.1,184.6c0.4,6.6,5.101,8.8,7.9,13c-2.5,3.2-6.9,4.6-12,5.3c-2.101,0-4.2,0-6.2,0
				c-10.9-1.7-19.4-5.8-21.1-16.601C106.4,190.3,118.5,185.9,128.1,184.6z"/>
			<path fill="#776E65" d="M122.5,153.4c1.3,0,2.6,0,3.8,0C125.7,153.8,123.3,153.8,122.5,153.4z"/>
			<path fill="#776E65" d="M117.8,202.8c2.1,0,4.2,0,6.2,0C122.5,203.2,119.3,203.2,117.8,202.8z"/>
			<path fill="#776E65" d="M123,169.7c0.2,0,0.3,0,0.5,0c-1.101,0.8-0.601-2.1-0.7-3.1C123.3,167.1,122.9,168.7,123,169.7z"/>
			<path fill="#776E65" d="M119.7,168c1.3,5.3,4.8,8.5,5,14.9c-5,0.9-10.4,1.5-16.101,1.7c-1.399,0-2.899,0-4.3,0c-1.5,0-3,0-4.6,0
				c-1.601,0-3.2,0-4.801,0c-2-5-6.1-8-6.5-14.6C98.5,174.2,109.6,168.8,119.7,168z"/>
			<path fill="#776E65" d="M121.1,154.8c0,1,0,2.1,0,3.1C120.7,157.4,120.7,155.3,121.1,154.8z"/>
			<path fill="#776E65" d="M118,154.8c1,2.3-1.601,7.8,1.399,8.4c-3.1,3.5-8.899,4.4-15.1,4.8c-1.5,0-3,0-4.6,0
				c-0.9,0-1.801,0-2.601,0c-2,0-4,0-6,0c-1.5,0-3,0-4.6,0c-0.101-4.8-3-6.7-3.101-11.5c0-0.9,0-1.8,0-2.6c-0.1-1,1.5-0.3,2.2-0.5
				c2.3,0,4.601,0,7,0c1.101-0.2,2.9,0.3,3.601-0.2c1.1,0,2.199,0,3.399,0c3.101,0,6.2,0,9.4,0C112.3,153.3,115.4,153.8,118,154.8z"
				/>
			<path fill="#776E65" d="M108.9,153.1c-3.1,0-6.199,0-9.399,0C102.1,152.7,106.3,152.7,108.9,153.1z"/>
			<path fill="#776E65" d="M104.3,184.6c1.4,0,2.9,0,4.3,0c-1,0.6-3,0.1-4.3,0.2C104.3,184.7,104.3,184.6,104.3,184.6z"/>
			<path fill="#776E65" d="M104.3,184.6c0,0.1,0,0.2,0,0.2c-1.5,0-3,0-4.6,0c0-0.1,0-0.2,0-0.2C101.3,184.6,102.8,184.6,104.3,184.6
				z"/>
			<path fill="#776E65" d="M99.8,168c1.5,0,3,0,4.6,0c-1,0.6-3.1,0.1-4.6,0.2C99.8,168.2,99.8,168.1,99.8,168z"/>
			<path fill="#776E65" d="M99.8,184.6c0,0.1,0,0.2,0,0.2c-1.5-0.2-3.7,0.3-4.8-0.2C96.5,184.6,98.1,184.6,99.8,184.6z"/>
			<path fill="#776E65" d="M99.8,168c0,0.1,0,0.2,0,0.2c-0.9,0-1.8,0-2.6,0c0-0.1,0-0.2,0-0.2C98,168,98.9,168,99.8,168z"/>
			<path fill="#776E65" d="M97.1,168c0,0.1,0,0.2,0,0.2c-2,0-4,0-6,0c0-0.1,0-0.2,0-0.2C93.1,168,95.1,168,97.1,168z"/>
			<path fill="#776E65" d="M93.3,186.2c1.7,3.1,2.8,7,6.5,8.2c-3.1,2.7-7.8,3.9-13.4,4.1c-0.899,0-1.8,0-2.6,0
				c-10.4-0.9-19.6-3.1-23.3-10.8c2.5-1,5.5-1.5,8.899-1.7c2.101,0,4.2,0,6.2,0c1,0,2.101,0,3.101,0c0.3,0.5,1.699,0.1,2.399,0.2
				c1,0,1.9,0,2.9,0c1.899,0.4,5.5,0.4,7.399,0C92,186.2,92.6,186.2,93.3,186.2z"/>
			<path fill="#776E65" d="M92.5,153.4c0.7-0.5,2.5-0.1,3.6-0.2C95.4,153.7,93.7,153.2,92.5,153.4z"/>
			<path fill="#776E65" d="M83.9,186.2c2.5,0,5,0,7.4,0C89.4,186.6,85.8,186.6,83.9,186.2z"/>
			<path fill="#776E65" d="M91.1,168c0,0.1,0,0.2,0,0.2c-1.399-0.2-3.5,0.3-4.6-0.2C88.1,168,89.6,168,91.1,168z"/>
			<path fill="#776E65" d="M89.9,182.6c0.301,0.9-3.1,0.3-4.3,0.5c0-0.1,0-0.2,0-0.2C87,182.7,88.9,183.2,89.9,182.6z"/>
			<path fill="#776E65" d="M89.9,182.6c-1,0.6-3,0.1-4.3,0.2c-0.7,0.1-2.1-0.3-2.399,0.2c-0.9,0-1.801,0-2.601,0c-1,0-2.1,0-3.1,0
				c-2.9,0-5.8,0-8.601,0c-11.8-0.5-21.8-2.7-25-11.8c5.5-2.1,13.2-2,20.9-1.9c0.6,0.6,2.3,0.1,3.4,0.2c1.1,0,2.199,0,3.399,0
				c0.8,0.5,2.601,0.1,3.8,0.2c2,0,4,0,6,0c0.801-0.1,2.2,0.3,2.601-0.2c0.399,0,0.8,0,1.2,0C86.4,174.4,89,177.7,89.9,182.6z"/>
			<path fill="#776E65" d="M83.7,198.5c0.899,0,1.8,0,2.6,0C86,198.9,84,198.9,83.7,198.5z"/>
			<path fill="#776E65" d="M85.6,182.9c0,0.1,0,0.2,0,0.2c-0.8,0-1.6,0-2.399,0C83.5,182.6,84.9,183,85.6,182.9z"/>
			<path fill="#776E65" d="M85.6,153.4c-0.7,0.2-2.2-0.5-2.2,0.5c-0.1,0-0.199,0-0.199,0c0-0.2,0-0.5,0-0.7
				C83.9,153.3,85.3,152.8,85.6,153.4z"/>
			<path fill="#776E65" d="M81.3,169.9c0.4-0.5,1.8-0.1,2.6-0.2C83.5,170.2,82.1,169.8,81.3,169.9z"/>
			<path fill="#776E65" d="M83.4,153.8c0,0.9,0,1.8,0,2.6c-0.6-0.4-0.1-1.8-0.199-2.6C83.3,153.8,83.4,153.8,83.4,153.8z"/>
			<path fill="#776E65" d="M83.4,168.2c-1.399,0-2.899,0-4.3,0c0.9-0.6,2.8-0.1,4.101-0.2c0-0.3,0-0.6,0-1
				C83.7,167,83.3,167.9,83.4,168.2z"/>
			<path fill="#776E65" d="M83.2,167c0,0.3,0,0.6,0,1c-1.301,0.2-3.2-0.3-4.101,0.2c-0.7,0-1.399,0-2.2,0c-1.5,0-3,0-4.6,0
				c-0.8,0.1-2.2-0.3-2.6,0.2c-4.2,0-8.301,0-12.5,0c-0.301-0.5-1.7-0.1-2.4-0.2c-13.3-0.8-24.6-3.7-29-13.4c4-0.9,8.2-1.5,13-1.7
				c1,0,2.1,0,3.1,0c2.9,0,5.801,0,8.601,0c1.7,0,3.399,0,5,0c1.399,0,2.7,0,4.1,0c1,0.6,3,0.1,4.3,0.2c1,0,1.9,0,2.9,0
				c2.3,0.4,6.3,0.4,8.6,0c0.601,0,1.301,0,1.9,0c0.7-0.1,2.1,0.3,2.4-0.2C82.1,156.6,82.3,162.2,83.2,167z"/>
			<path fill="#776E65" d="M81,186.2c-0.7-0.2-2.101,0.3-2.4-0.2C79.4,186.1,80.7,185.7,81,186.2z"/>
			<path fill="#776E65" d="M77.4,183.1c1,0,2.101,0,3.101,0c-0.601,0.5-2.101,0.1-3.101,0.2C77.4,183.3,77.4,183.2,77.4,183.1z"/>
			<path fill="#776E65" d="M77.4,153.4c0.301-0.5,1.7-0.1,2.4-0.2C79.5,153.7,78.2,153.2,77.4,153.4z"/>
			<path fill="#776E65" d="M77.4,183.1c0,0.1,0,0.2,0,0.2c-2.8-0.2-6.199,0.3-8.6-0.2C71.7,183.1,74.5,183.1,77.4,183.1z"/>
			<path fill="#776E65" d="M72.4,168.2c1.5,0,3,0,4.601,0c-1.101,0.6-3.101,0.1-4.601,0.2C72.4,168.4,72.4,168.3,72.4,168.2z"/>
			<path fill="#776E65" d="M66.9,153.4c2.9,0,5.801,0,8.601,0C73.2,153.8,69.2,153.8,66.9,153.4z"/>
			<path fill="#776E65" d="M75.5,186c-2.101,0-4.2,0-6.2,0C70.8,185.6,74,185.6,75.5,186z"/>
			<path fill="#776E65" d="M75.3,169.9c-1.2-0.2-3,0.3-3.8-0.2C72.6,169.8,74.5,169.4,75.3,169.9z"/>
			<path fill="#776E65" d="M72.4,168.2c0,0.1,0,0.2,0,0.2c-0.899,0-1.8,0-2.6,0C70.2,167.9,71.6,168.4,72.4,168.2z"/>
			<path fill="#776E65" d="M68.1,169.7c-1-0.2-2.7,0.3-3.399-0.2C65.8,169.6,67.4,169.1,68.1,169.7z"/>
			<path fill="#776E65" d="M64,153.4c-1.4-0.2-3.4,0.3-4.3-0.2C61,153.3,63,152.8,64,153.4z"/>
			<path fill="#776E65" d="M57.3,168.5c-0.7-0.1-2.1,0.3-2.4-0.2C55.6,168.4,56.9,167.9,57.3,168.5z"/>
			<path fill="#776E65" d="M55.6,153.1c-1.7,0-3.399,0-5,0c0-0.1,0-0.2,0-0.2C52.1,153,54.4,152.6,55.6,153.1z"/>
			<path fill="#776E65" d="M50.5,152.9c0,0.1,0,0.2,0,0.2c-2.9,0-5.8,0-8.601,0c0-0.1,0-0.2,0-0.2C44.8,152.9,47.7,152.9,50.5,152.9
				z"/>
			<path fill="#776E65" d="M41.9,152.9c0,0.1,0,0.2,0,0.2c-1,0-2.1,0-3.1,0C39.4,152.6,40.9,153,41.9,152.9z"/>
		</g>
	</g>
</g>
<g id="Layer_9">
	<polygon fill="#1A3710" points="140.7,157.1 154.6,185.3 185.7,189.8 163.2,211.7 168.5,242.7 140.7,228.1 112.9,242.7 
		118.2,211.7 95.7,189.8 126.8,185.3 	"/>
	<polygon fill="#1A3710" points="259.5,157.9 273.4,186 304.5,190.6 282,212.5 287.3,243.4 259.5,228.8 231.7,243.4 237,212.5 
		214.5,190.6 245.6,186 	"/>
</g>
</svg>
