<?xml version="1.0" encoding="utf-8"?>
<!-- Generator: Adobe Illustrator 15.0.0, SVG Export Plug-In . SVG Version: 6.00 Build 0)  -->
<!DOCTYPE svg PUBLIC "-//W3C//DTD SVG 1.1//EN" "http://www.w3.org/Graphics/SVG/1.1/DTD/svg11.dtd">
<svg version="1.1" id="Layer_1" xmlns="http://www.w3.org/2000/svg" xmlns:xlink="http://www.w3.org/1999/xlink" x="0px" y="0px"
	 width="400px" height="400px" viewBox="0 0 400 400" enable-background="new 0 0 400 400" xml:space="preserve">
<g id="Layer_2">
</g>
<g id="Layer_1_1_" display="none">
	<path display="inline" fill="#F6F6F6" d="M336.699,264C275.4,229.9,234,203.8,200,142.3v-0.1l0,0l0,0v0.1
		c-34,61.5-75.4,87.5-136.7,121.7c-0.8,15.1-2.6,25.5,2.2,39.1C128,278.9,157.8,250.6,200,206c42.1,44.6,72,72.9,134.5,97.1
		C339.199,289.5,337.4,279.1,336.699,264z"/>
	<path display="inline" fill="#F6F6F6" d="M336.699,210C275.4,175.8,234,121.8,200,60.3v-0.1l0,0l0,0v0.1
		C166,121.8,124.6,175.8,63.3,210c-0.8,15.1-2.6,25.5,2.2,39.1C128,224.9,157.8,178.6,200,134c42.1,44.6,72,90.9,134.5,115.1
		C339.199,235.5,337.4,225.1,336.699,210z"/>
	<path display="inline" fill="#F6F6F6" d="M336.699,317C275.4,282.9,234,277.8,200,216.4V216.3l0,0l0,0v0.101
		c-34,61.5-75.4,66.5-136.7,100.699c-0.8,15.101-2.6,25.5,2.2,39.101C128,331.9,157.8,314.6,200,270c42.1,44.6,72,61.9,134.5,86.1
		C339.199,342.6,337.4,332.1,336.699,317z"/>
</g>
<g id="Layer_3" display="none">
	<path display="inline" fill="#F6F6F6" d="M179.5,305c0,6.6-5.4,12-12,12H112c-6.601,0-12-5.4-12-12V96c0-6.6,5.399-12,12-12h55.5
		c6.6,0,12,5.4,12,12V305z"/>
	<path display="inline" fill="#F6F6F6" d="M300.5,305c0,6.6-5.4,12-12,12H233c-6.601,0-12-5.4-12-12V96c0-6.6,5.399-12,12-12h55.5
		c6.6,0,12,5.4,12,12V305z"/>
</g>
<g id="Layer_4" display="none">
	<g id="bURbgi.tif" display="inline">
		<g id="XMLID_1_">
			<g>
				<path fill="#707070" d="M235,250c3.1,2.2-3.9,2.6-6,3C227.6,248.6,235,253,235,250z"/>
				<path fill="#707070" d="M182,223c3-1,1.8,2.2,2,4c-3.8-1.5-1.9,2.8-5,2C179.3,226.3,181.5,225.5,182,223z"/>
				<path fill="#707070" d="M248,174c0.3,1.4,1.399,1.9,1,4c7.8-0.4,12.399,7.5,18,6c-8.8-3.6-15.101-9.6-23-14
					c-1.2,5.8-8.3,11-8,15c0.7-3,2.1,1,4,0c1.3-2.5-2.9-4.1,0-5c2,0.7,8.1,2.5,9,1c-2-1.7-5-2.3-6-5
					C246.1,176.8,244.9,173.2,248,174z M262,165c-3.101-1.6-4.9-4.4-8-6C253,164,260.3,165.9,262,165z M259,154c0,1.3-1.8,0.9-2,2
					c3.399-1.3,5.3,3.9,7,1C261.6,156.7,262.1,153.5,259,154z M264,175c0.5-3.1-2.101-3.2-5-3c-3.101-2.9-4.8-7.2-10-8
					c0.399,2.4-1.8,2.2-1,5C253.7,169.3,257.8,172.8,264,175z M152,157c1.1-4.5-4-2.6-6-4C146.6,155.7,148.8,156.9,152,157z
					 M153,160c3.2,0.2,4.3-1.7,5-4c-2.8-0.8-2.601,1.4-5,1C153,158,153,159,153,160z M153,259c3,1.4,4,4.6,7,6c-3-3.2,0.5-10.6-7-11
					c-3.601,3.4-5.9,8.1-12,9c2.7,0.9-2,3.7,2,4c3.7-3.2,3.5-4.3,9-2C152.6,263.2,150.8,259.1,153,259z M100,228
					c2.6-1.7,6.8-1.8,7-6C103.4,222.8,100.6,224.3,100,228z M113,228c-0.3-1.8,2.8-5,0-6C112.2,222.7,110.8,227.6,113,228z M116,144
					c3.8,16.6-5,35.2,10,40c2.7,0.9,6.2-0.3,9,0c12.7,1.4,25.1,7.8,37,11c-0.9-6.4-7.2-7.5-12-10c-5.5-7.4-9.601-17.2-16-22
					c-2-1.5-5.2-1.6-7-3c-2.9-2.2-4.9-6.6-8-9c-3.3-2.6-7-5.2-11-6C117.8,144.2,117.2,143.8,116,144z M156,219
					c-7.5,3.7-14.5,1.4-25,1c-2.7,4.3-14.601-0.7-14,7c1,1.3,1,3.7,3,4c0.3-2.3,1-4.3,3-5c2.5,0.5,4,2,5,4c-0.5-3.1,2.5-2.8,4-4
					c-0.2,3.8,0.8,0.4,3,1c0,1.8-5.601,2.9-2,5c4.1-10.8,22.7-3.5,26-11C157.6,220.8,157.3,219.3,156,219z M213,243.1
					c0.1,0.2,0.3,0.4,0.7,0.601C213.5,243.6,213.2,243.3,213,243.1z M221,135c-3.4,0.2-3,3.3-5,0c0.2,1.9-1.101,2.2-1,4
					C217.7,138.4,219.7,137,221,135z M257,220c-12.4,0.2-26.2-5.7-35-2c0.7,2.7,1.6,5.1,3,7c4.7-12.4,17.1,4.2,24-2
					c2.399,0.3,1.899,3.5,5,3c0-4.5,4.6-0.3,6,0c1.1-0.9,0.3-3.7,3-3c4.899,5,11.6,4.9,20,2c-2.8-1.5-6.601-2.8-10-1
					C269.5,218.5,262.2,219.9,257,220z M209,133c-2.7-2.6-5.3,0.6-9,0c-0.5,2.3-2,5.1,0,7C204.1,138.8,206.8,136.2,209,133z
					 M208,108c-4.5-3.3-7.9,1.7-8,6C204.4,113.8,206.6,111.3,208,108z M212,258c4.1-0.8,5.1,1.5,5,5c2.5-1.3,4.2,2.9,5,0
					c-5.2-1.1-4.3-8.4-10-9C212,255.3,212,256.7,212,258z M203,163c2.8-7.5,11.2-3.1,14-10c-5.2-0.5-11.7,7.2-15,2
					c2.1-2.2,7.1-1.5,7-6c-1.7-1.7-5.9-0.8-9-1c-2,5.2,0.399,8.8,1,14c-0.2,2.9-3.9,5-2,7c5.1,1.8,12.5-1.9,15-6
					C210,162.5,204.5,167.1,203,163z M212,115c-4.3-2-7.8,4.6-12,6C205.5,120.5,208.5,117.5,212,115z M207,173c-1.4,0-2.2-0.5-3-1
					c1,1.9-3,3.3,0,4C204.1,174.1,207.3,175.3,207,173z M258,248c-12.5-12.8-34.2-16.5-49-27c1.3,7.3,7.6,9.7,9,17
					c3,0.9,7.8-1.4,8,0c-0.4,2.2-4.9,0.4-7,1c6.8,14.2,14.3,27.7,27,36C250.1,266.1,254.2,257.2,258,248z M221,133
					c-0.601-2.4-2.3-3.6-4-5c1.3,2.5-4,3.1-1,4c0.2-1.2,1.6-1.1,3-1C219.1,132.2,219.3,133.4,221,133z M206,192
					c9.899-4.7,17.5-17.1,25-21c0.5,6.1-6.2,5.2-6,11c9.7-4.2,13.6-12.5,21-21c2.8-3.2,5.7-4.9,8-8c2.5-3.3,3.6-7.9,6-11
					c1.6-2,4.1-2.1,5-4c0.899-1.8,0.2-5,1-7c-12,2.9-23.5,0.3-37,2c-5.2,3.8-4.3,13.7-8,19C220.2,169.5,211,178.6,206,192z M182,198
					c2.1,0.6,3.8,5.1,5,1C185.5,199,182.9,195.3,182,198z M195,305c0.5-11.9,1.8-17.3,3-29c-6.2-5,3.6-23.8-3-30
					c-0.2,1.2-1.601,1.1-3,1c0.8,11.5,0.7,28-7,34c0.3,6.5,0.899,12.7-2,19c-0.2-1.2,0.2-2.8-1-3c0.3,4.7,4.1,5.9,4,11
					C191,309,192,306,195,305z M198,119c1.6-0.1,3.5,0.1,3-2C199.3,117,198.4,117.8,198,119z M200,141c0.7,3.1-1.7,2.9-1,6
					c5.2,0.2,7.3-2.7,9-6C205.3,141,202.7,141,200,141z M216,122c-4.3,0.5-17.5,0.3-18,8C203.3,130.4,211,125.1,216,122z M158,152
					c-0.2,2.2,0.8,3.2,3,3c0-1,0-2,0-3C160,152,159,152,158,152z M162,163c0.6-0.9,4.1-3.7,2-4c-1.3,1.7-4.5,1.5-6,3
					c0.6,5,6.399,4.9,10,7C168.6,164.4,162.8,166.2,162,163z M160,173.3c0.3,5.3,5.6,5.5,8,8.7C167.6,178.6,161.3,174.4,160,173.3
					c0-0.1,0-0.2,0-0.3C159.7,172.9,159.8,173,160,173.3z M160,209c4.7-0.8,8.6-3.5,13-4c2.3-0.3,5.899,4,7-1
					c-15.9-7.4-32-14.7-52-18c-9,4.4-13.8,12.8-20,20c-7.4,0.9-10.101,6.5-14,11c9.7,1.3,18.7-1.8,26-3
					C133.2,211.8,147.7,211.1,160,209z M175,187c-1.9-1.4-2.9-3.8-6-4C168.1,186.6,173.9,188.7,175,187z M175,264
					c-1.7-5.1-4.9-7.7-3-14c-4.601-0.6-6.2,1.8-11,1c0.7,5,1.8,14.8,6,13c-3.101-1.7-5.5-11.7,2-11C170,257.6,170.4,262.9,175,264z
					 M191,135c4.3-6,4.6-24,0-30c-13,7.6-21.101,20.2-30,32c1.5,3.5,4.399,5.6,4,11c10.399,6.2,11.7,21.6,20,30c-0.3,4,2.3,5,2,9
					c1.5,1.5,4.2,1.8,5,4c1.8,8.3,1.399,10.6-1,18c-0.4,4.5,4,8.1,2,11c-3.4-1.7-7.5-1.5-12,0c-3.7,1.2-12.8,7-21,11
					c-16.601,8.2-34.7,15.9-35,33c11.5-2.8,21.1-10.7,31-16c10.3-5.5,20.6-10.5,29-18c3.7-3.3,5.5-8.6,11-10c2.5,0.8,3.899,2.7,7,3
					c1.399,8,7,16.9,10,20.1c-0.8-1,2.1,0.101,2-1.1c-1.3-2.3-3-4.3-5-6c-1.5-10.4-8.101-11.1-8-24c8.5-3.8,25.5,0.9,30-7
					c22.2,5.1,41.899,12.8,66,16c-6.4-14.2-13.3-28-26-36c-6,4.4-11.5,8.5-20,11c-7,2.1-16,1.1-21,4c-3.4,2-2.8,6.7-7,7
					c-7,0-14.601-0.6-19,2c-3.101-3.2-8.101-4.6-11-8c1.6-5.8,2.899-26.2-2-32c5-5.7-0.4-21.7,3-29C193.3,138.7,191.1,137.9,191,135
					z M156,131c11.7-17.3,26.1-31.9,45-42c13.7,9.3,22.5,23.5,33,36c10.6-4,28.1-5.4,41-2c0.899,4,3.899,6.1,5,10
					c3.7,13.4-3.4,34.1,1,50c1.3,4.7,7,8.4,10,12c3.8,4.5,6.3,8.5,10,12c0.7,4.3-1.7,5.6-3,8c20.1,18.4-18.4,30.8-35,36
					c-1.3,6.8-3,13.7-6,20c-2.5,5.1-6.601,12.8-12,14c-6.3,1.4-14-3-21-5c-7.101-2-14.2-2.8-21-5c-2.2,7.9,1.3,18.7,0,29
					c-5,6.1-19.2,11.7-28,5c-0.8-12.4,2.2-21.1,6-29c-20.3-2.4-49.3,3.3-61-10c-1.4-8,3.1-10.2,3-17c-7.8-8.1-31.9-16.3-33-31
					c-1-13.5,18.3-24.5,24-34c-5.9-15.6-7.3-35.5-1-52C125.1,132.1,139.9,130.9,156,131z M144,153c1.1-0.4,3.8-4,1-5
					c-1.101,2.3-6.3,0.4-5-3c-1,0-2,0-3,0c0,0.7,0,1.3,0,2C141.3,149,140,150.6,144,153z M134,146c1.6-2.8-4.3-2.8-4-1
					C131.4,145.3,131.9,146.4,134,146z M177,179c0-1.7-0.8-2.6-2-3c0,1-0.8,1.2-1,2C175.3,178,175.4,179.3,177,179z M165,221
					c-1.8,0.2-5-1-4,2C163.3,223.3,164.8,222.8,165,221z M211,148c3.7,0.4,5.899-0.8,6-4C214.3,144.6,212.3,146,211,148z M206,251
					c3.5-2,4.399,3.4,5,1c-1.2-2.1-1.2-5.5-4-6C207.3,248.3,206.8,249.8,206,251z M204,243C203.2,249,208.6,243.7,204,243L204,243z
					 M181,260c0-0.7,0-1.3,0-2c-0.7,0-1.3,0-2,0c0,0.7,0,1.3,0,2C179.7,260,180.3,260,181,260z M224,135c0-0.7,0-1.3,0-2
					c-0.7,0-1.3,0-2,0c0,0.7,0,1.3,0,2C222.7,135,223.3,135,224,135z"/>
			</g>
		</g>
	</g>
	<path display="inline" fill="#F65E3B" d="M360.4,330.6"/>
</g>
<path fill="#1A3710" d="M277.5,179v-57l-43.5,3l-34-36l-44,42l-43,5l1.2,48.5l-26.9,37.4L125,250l-5,20l61.5,7.1L172,308.2l31-4.2
	l0.399-33.9l44.4,13.7L263,251l40.7-26L277.5,179z M292.1,221L205,209l67-24L292.1,221z M209,197l58-61l-1,43L209,197z M267,131
	l-61,61l21.899-58L267,131z M152.2,139l26.8,48.6L125,139H152.2z M119.5,141l58.7,54l-58.7-16V141z M121.4,187.6L180,204l-80,15
	L121.4,187.6z M105.7,225l76.3-11.5l-55.2,25.9L105.7,225z M181,267l-44-2.8l50-29.2L181,267z M125,264l5-16l63-28L125,264z
	 M192.8,195L161,137l34.5-32L192.8,195z M199,187.6l2.1-82.6l19.9,25L199,187.6z M204.9,264l-1.5-32l25.4,38.1L204.9,264z
	 M242.1,272.2L207,219l48.899,30.3L242.1,272.2z M258,239.4L216,216.8l69.8,8.2L258,239.4z"/>
</svg>
