<?xml version="1.0" encoding="utf-8"?>
<!-- Generator: Adobe Illustrator 15.0.0, SVG Export Plug-In . SVG Version: 6.00 Build 0)  -->
<!DOCTYPE svg PUBLIC "-//W3C//DTD SVG 1.1//EN" "http://www.w3.org/Graphics/SVG/1.1/DTD/svg11.dtd">
<svg version="1.1" id="Layer_1" xmlns="http://www.w3.org/2000/svg" xmlns:xlink="http://www.w3.org/1999/xlink" x="0px" y="0px"
	 width="400px" height="400px" viewBox="0 0 400 400" enable-background="new 0 0 400 400" xml:space="preserve">
<path fill="#8F9A87" d="M336.699,263C275.4,228.9,238.4,200.4,200,147.3v-0.1l0,0l0,0v0.1c-30.7,48.1-75.4,81.5-136.7,115.7
	c-0.8,15.1-2.6,25.5,2.2,39.1C128,277.9,157.8,251.6,200,207c42.1,44.6,72,70.9,134.5,95.1C339.199,288.5,337.4,278.1,336.699,263z"
	/>
<path fill="#8F9A87" d="M336.699,209C275.4,174.8,234,120.8,200,59.3v-0.1l0,0l0,0v0.1C166,120.8,124.6,174.8,63.3,209
	c-0.8,15.1-2.6,25.5,2.2,39.1C128,223.9,157.8,177.6,200,133c42.1,44.6,72,90.9,134.5,115.1C339.199,234.5,337.4,224.1,336.699,209z
	"/>
<path fill="#8F9A87" d="M336.699,316c-61.3-34.1-98.3-44.6-136.699-97.7v-0.1l0,0l0,0v0.1C169.3,266.4,124.6,281.8,63.3,316
	c-0.8,15.1-2.6,21.5,2.2,35.1C125.2,319.7,157.8,310.6,200,266c42.1,44.6,74.5,52.5,134.5,85.1
	C339.199,337.5,337.4,331.1,336.699,316z"/>
</svg>
